<svg xmlns="http://www.w3.org/2000/svg" version="1.1" xmlns:xlink="http://www.w3.org/1999/xlink" width="512" height="512" x="0" y="0" viewBox="0 0 64 64" style="enable-background:new 0 0 512 512" xml:space="preserve" class=""><g><path d="M46 16.455a1 1 0 0 0-1-1h-3a1 1 0 1 0 0 2h3a1 1 0 0 0 1-1zM41.001 12.5c.346.102 2.764-1.497 3.097-1.634 1.128-.676.148-2.37-1-1.732l-2.598 1.5c-.886.471-.482 1.904.501 1.866zM41.5 20.543c-1.148-.638-2.128 1.055-1 1.732.346.144 2.738 1.73 3.097 1.634.981.037 1.387-1.394.5-1.866l-2.597-1.5zM14 17h4.04c1.312-.017 1.315-1.981 0-2H14c-1.654 0-3 1.346-3 3v26c0 1.654 1.346 3 3 3h17.49c1.31-.027 1.322-1.973 0-2H14a1 1 0 0 1-1-1V18c0-.551.448-1 1-1zM50 45h-.72c-1.312.016-1.315 1.981 0 2H50c1.654 0 3-1.346 3-3V18c0-1.654-1.346-3-3-3h-2.04c-1.316.028-1.315 1.974 0 2H50c.552 0 1 .449 1 1v26a1 1 0 0 1-1 1z" fill="#302a80" opacity="1" data-original="#000000" class=""></path><path d="M58 49h-2.54A5.969 5.969 0 0 0 57 45V17c0-3.309-2.691-6-6-6h-5.17a1 1 0 1 0 0 2H51c2.206 0 4 1.794 4 4v28c0 2.206-1.794 4-4 4H13c-2.206 0-4-1.794-4-4V17c0-2.206 1.794-4 4-4h7.17a1 1 0 1 0 0-2H13c-3.308 0-6 2.691-6 6v28c0 1.538.586 2.937 1.54 4H6c-5.273.162-5.296 7.83 0 8h52c5.268-.16 5.301-7.829 0-8zm-31.132 6c.28-.425.606-1.041 1.202-1h7.86c.592-.042.929.576 1.202 1zM58 55H39.535l-1.11-1.664A2.993 2.993 0 0 0 35.93 52h-7.86a2.993 2.993 0 0 0-2.496 1.336L24.464 55H6c-2.622-.064-2.65-3.928 0-4h52c2.618.062 2.653 3.928 0 4z" fill="#302a80" opacity="1" data-original="#000000" class=""></path><path d="M19 34.5c0 3.584 2.916 6.5 6.5 6.5h6.671l1.455 5.208c.523 2.166 3.488 2.948 5.01 1.32l1.824-1.824 2.123 2.123a2 2 0 0 0 2.824 0l1.421-1.42a2 2 0 0 0 0-2.824l-2.124-2.123 1.823-1.823c1.702-1.595.759-4.666-1.53-5.07.048-3.606-2.893-6.57-6.497-6.567h-13a6.508 6.508 0 0 0-6.5 6.5zm24.66 1.773 1.013.28c.5.139.656.542.7.708a.984.984 0 0 1-.26.962l-2.53 2.53a1 1 0 0 0 0 1.414l2.83 2.826-1.416 1.42-2.83-2.83a1 1 0 0 0-1.414 0l-2.53 2.53a.981.981 0 0 1-.962.26.985.985 0 0 1-.708-.702c-.874-3.133-2.664-9.52-3.549-12.667l11.655 3.269zM38.5 30a4.506 4.506 0 0 1 4.473 4.003l-10.434-2.926a2 2 0 0 0-2.462 2.463L31.61 39H25.5c-5.945-.188-5.947-8.811 0-9h13zM33.5 20H29c-1.314.022-1.314 1.978 0 2h2v2a1 1 0 1 0 2 0v-2c4.95.372 5.446-6.756.5-7h-2c-.827 0-1.5-.673-1.5-1.5s.673-1.5 1.5-1.5H36c1.313-.02 1.316-1.979 0-2h-3V8a1 1 0 1 0-2 0v2.05c-4.239.679-3.812 6.868.5 6.95h2c1.97.034 1.972 2.966 0 3zM24 15.455h-3c-1.314.021-1.315 1.978 0 2h3c1.314-.022 1.315-1.978 0-2zM21.902 10.866c.346.144 2.738 1.73 3.097 1.634.982.037 1.388-1.394.501-1.866l-2.598-1.5c-1.147-.637-2.128 1.055-1 1.732zM21.902 22.043c-.885.471-.481 1.904.501 1.866.347.102 2.764-1.496 3.097-1.634 1.128-.676.147-2.37-1-1.732l-2.598 1.5z" fill="#302a80" opacity="1" data-original="#000000" class=""></path></g></svg>