<svg xmlns="http://www.w3.org/2000/svg" version="1.1" xmlns:xlink="http://www.w3.org/1999/xlink" width="512" height="512" x="0" y="0" viewBox="0 0 512 512" style="enable-background:new 0 0 512 512" xml:space="preserve" class=""><g><path d="M447.509 64.492C405.921 22.904 350.627 0 291.812 0S177.703 22.904 136.116 64.492a224.554 224.554 0 0 0-8.863 9.389 7.515 7.515 0 1 0 11.224 9.996 209.753 209.753 0 0 1 8.267-8.758c38.749-38.749 90.269-60.09 145.069-60.09s106.319 21.34 145.068 60.09c79.991 79.991 79.991 210.146 0 290.137-38.749 38.749-90.269 60.09-145.068 60.09-54.8 0-106.32-21.34-145.069-60.09-33.691-33.691-54.707-78.322-59.176-125.671-4.412-46.738 7.377-93.882 33.194-132.749a7.516 7.516 0 0 0-12.52-8.316c-27.715 41.724-40.372 92.324-35.637 142.478 3.662 38.8 17.685 75.891 40.198 107.361l-22.068 22.068a7.515 7.515 0 0 0-10.624.003L12.71 437.831c-16.945 16.944-16.945 44.516 0 61.46C21.181 507.764 32.31 512 43.439 512s22.258-4.236 30.73-12.708l19.049-19.049a7.515 7.515 0 1 0-10.628-10.628l-19.049 19.049c-5.37 5.37-12.509 8.327-20.103 8.327s-14.733-2.957-20.103-8.327-8.327-12.509-8.327-20.103 2.957-14.733 8.327-20.103l62.087-62.087 40.205 40.205-21.783 21.783a7.515 7.515 0 1 0 10.628 10.628l27.096-27.096a7.514 7.514 0 0 0 .003-10.624l22.025-22.025c37.138 26.713 81.564 41.135 128.214 41.135 58.815 0 114.108-22.904 155.697-64.492S512 279.002 512 220.188 489.096 106.08 447.509 64.492zM130.945 410.638l-29.584-29.584 20.678-20.678a219.424 219.424 0 0 0 14.076 15.508 224.396 224.396 0 0 0 15.488 14.096z" fill="#302a80" opacity="1" data-original="#000000" class=""></path><path d="M368.689 380.394c18.054-8.664 34.453-20.301 48.741-34.588 69.265-69.266 69.265-181.969 0-251.235-69.267-69.266-181.969-69.265-251.235 0-69.265 69.266-69.265 181.969 0 251.235 33.727 33.727 79.262 52.011 125.827 52.01a177.38 177.38 0 0 0 47.266-6.408 7.515 7.515 0 0 0-4.003-14.487c-56.412 15.587-117.128-.408-158.462-41.743-63.406-63.406-63.406-166.574 0-229.979 63.405-63.404 166.571-63.406 229.979 0 63.406 63.406 63.406 166.574.001 229.979-13.086 13.084-28.096 23.738-44.616 31.666a7.515 7.515 0 0 0 6.502 13.55z" fill="#302a80" opacity="1" data-original="#000000" class=""></path><path d="M300.865 185.944a7.515 7.515 0 1 0 0-15.03h-35.191a7.515 7.515 0 0 0-7.515 7.515v83.518a7.515 7.515 0 0 0 7.515 7.515h35.191a7.515 7.515 0 1 0 0-15.03h-27.676v-26.729h25.081a7.515 7.515 0 1 0 0-15.03h-25.081v-26.729zM211.785 254.817c-9.216 0-18.114-3.748-23.804-10.026a7.514 7.514 0 0 0-10.615-.521 7.514 7.514 0 0 0-.521 10.615c8.491 9.369 21.553 14.962 34.941 14.962 16.034 0 30.004-10.516 32.494-24.462 2.872-16.088-9.778-26.863-22.574-31.583-10.847-4.001-20.908-8.369-23.447-9.485-2.693-1.973-4-5.126-3.511-8.536.617-4.292 3.915-7.738 8.823-9.216 13.533-4.073 25.752 5.732 25.984 5.921a7.516 7.516 0 0 0 9.644-11.528c-.744-.626-18.483-15.252-39.962-8.784-10.498 3.162-17.919 11.389-19.366 21.472-1.347 9.387 2.718 18.415 10.609 23.56.332.216.681.406 1.043.568.484.216 12.002 5.343 24.982 10.131 9.319 3.437 14.049 8.846 12.979 14.84-1.047 5.852-7.605 12.072-17.699 12.072zM415.096 220.188c0-27.382-22.277-49.659-49.66-49.659-27.382 0-49.658 22.277-49.658 49.659s22.276 49.658 49.658 49.658c27.383.001 49.66-22.276 49.66-49.658zm-84.287 0c0-19.094 15.534-34.629 34.628-34.629 19.095 0 34.63 15.534 34.63 34.629s-15.535 34.629-34.63 34.629c-19.094 0-34.628-15.534-34.628-34.629z" fill="#302a80" opacity="1" data-original="#000000" class=""></path></g></svg>