<svg xmlns="http://www.w3.org/2000/svg" version="1.1" xmlns:xlink="http://www.w3.org/1999/xlink" width="512" height="512" x="0" y="0" viewBox="0 0 512 512" style="enable-background:new 0 0 512 512" xml:space="preserve" class=""><g><path d="M431.431 176.594c-5.569-6.536-14.646-16.439-26.267-26.486C375.572 124.523 344.567 111 315.5 111c-36.771 0-69.049 21.167-89.652 38.925-11.704 10.087-20.756 19.971-26.29 26.486-11.617 13.68-11.617 15.862-11.617 18.625 0 2.886 0 4.793 11.627 18.441 5.569 6.538 14.646 16.44 26.267 26.487 29.592 25.585 60.597 39.108 89.664 39.108 36.771 0 69.049-21.167 89.652-38.924 11.704-10.088 20.756-19.972 26.29-26.487 11.617-13.681 11.617-15.862 11.617-18.626 0-2.886 0-4.792-11.627-18.441zM315.5 259.073c-50.13 0-92.87-48.615-105.273-64.232C223.344 177.906 267.086 131 315.5 131c50.126 0 92.87 48.614 105.273 64.232-13.111 16.932-56.851 63.841-105.273 63.841z" fill="#302a80" opacity="1" data-original="#000000" class=""></path><path d="M315.517 144.862c-27.657 0-50.158 22.5-50.158 50.157s22.5 50.157 50.158 50.157c27.657 0 50.157-22.5 50.157-50.157s-22.5-50.157-50.157-50.157zm0 80.315c-16.629 0-30.158-13.528-30.158-30.157 0-16.629 13.529-30.157 30.158-30.157s30.157 13.528 30.157 30.157c0 16.629-13.528 30.157-30.157 30.157z" fill="#302a80" opacity="1" data-original="#000000" class=""></path><path d="M322.57 187.97c-1.86-1.87-4.44-2.93-7.07-2.93s-5.21 1.06-7.07 2.93a10.058 10.058 0 0 0-2.93 7.07c0 2.63 1.07 5.21 2.93 7.069 1.86 1.86 4.44 2.921 7.07 2.921s5.21-1.061 7.07-2.921a10.072 10.072 0 0 0 2.93-7.069c0-2.641-1.07-5.21-2.93-7.07zM452.39 36H299.985c-5.523 0-10 4.478-10 10s4.477 10 10 10H452.39c5.523 0 10-4.478 10-10s-4.477-10-10-10zM229.82 38.93a10.076 10.076 0 0 0-7.07-2.93c-2.64 0-5.21 1.069-7.07 2.93-1.86 1.86-2.93 4.44-2.93 7.07s1.07 5.21 2.93 7.069A10.055 10.055 0 0 0 222.75 56c2.63 0 5.21-1.07 7.07-2.931 1.86-1.859 2.93-4.439 2.93-7.069s-1.07-5.21-2.93-7.07zM193.07 38.93C191.21 37.07 188.63 36 186 36s-5.21 1.069-7.07 2.93C177.07 40.79 176 43.37 176 46s1.07 5.21 2.93 7.069C180.79 54.93 183.37 56 186 56s5.21-1.07 7.07-2.931C194.93 51.21 196 48.63 196 46s-1.07-5.21-2.93-7.07zM266.57 38.93A10.076 10.076 0 0 0 259.5 36c-2.64 0-5.22 1.069-7.08 2.93-1.86 1.861-2.92 4.44-2.92 7.07s1.06 5.21 2.92 7.069A10.096 10.096 0 0 0 259.5 56c2.63 0 5.21-1.07 7.07-2.931 1.86-1.859 2.93-4.439 2.93-7.069s-1.07-5.21-2.93-7.07z" fill="#302a80" opacity="1" data-original="#000000" class=""></path><path d="M502 0H129c-5.523 0-10 4.478-10 10v299c0 5.522 4.477 10 10 10h309v21.044a10.247 10.247 0 0 0-.915-.046H20v-235h44c5.523 0 10-4.478 10-10s-4.477-10-10-10H10c-5.523 0-10 4.478-10 10V408c0 5.522 4.477 10 10 10h169.037v33.996h-39.024c-5.523 0-10 4.478-10 10V502c0 5.522 4.477 10 10 10h178.049c5.523 0 10-4.478 10-10v-40.004c0-5.522-4.477-10-10-10h-39.024V418H448c5.523 0 10-4.478 10-10v-89h44c5.523 0 10-4.478 10-10V10c0-5.522-4.477-10-10-10zM308.06 471.996V492H150.012v-20.004H308.06zm-109.023-20V418h60v33.996h-60zM438.001 398H20v-38.002h417.086c.309 0 .613-.019.915-.046V398zM492 299H139V92h352.891c.037 0 .073-.005.109-.005V299zm0-226.995c-.037 0-.072-.005-.109-.005H139V20h353v52.005z" fill="#302a80" opacity="1" data-original="#000000" class=""></path><path d="M71.07 235.21a10.076 10.076 0 0 0-7.07-2.93c-2.64 0-5.21 1.069-7.07 2.93a10.072 10.072 0 0 0-2.93 7.07c0 2.63 1.07 5.21 2.93 7.069 1.86 1.86 4.44 2.931 7.07 2.931s5.21-1.07 7.07-2.931A10.072 10.072 0 0 0 74 242.28c0-2.631-1.07-5.211-2.93-7.07zM64 144.862c-5.523 0-10 4.478-10 10v50.669c0 5.522 4.477 10 10 10s10-4.478 10-10v-50.669c0-5.522-4.477-10-10-10zM71.07 271.96c-1.86-1.86-4.44-2.93-7.07-2.93s-5.21 1.069-7.07 2.93a10.072 10.072 0 0 0-2.93 7.07c0 2.63 1.07 5.21 2.93 7.069 1.86 1.86 4.44 2.931 7.07 2.931s5.21-1.07 7.07-2.931A10.072 10.072 0 0 0 74 279.03c0-2.631-1.07-5.211-2.93-7.07z" fill="#302a80" opacity="1" data-original="#000000" class=""></path></g></svg>